<svg width="16" height="16" viewBox="0 0 16 16" fill="none" xmlns="http://www.w3.org/2000/svg">
<g opacity="0.7" clip-path="url(#clip0_0_90)">
<rect x="0.5" y="0.5" width="15" height="15" rx="1.5" stroke="white"/>
<path fill-rule="evenodd" clip-rule="evenodd" d="M7.3 14.7V13.2542C4.93279 12.9419 3.05814 11.0672 2.74581 8.69999H1.3V7.29999H2.74582C3.05817 4.93279 4.9328 3.05817 7.3 2.74583V1.29999H8.7V2.74583C11.0672 3.05817 12.9418 4.93279 13.2542 7.29999H14.7V8.69999H13.2542C12.9419 11.0672 11.0672 12.9419 8.7 13.2542V14.7H7.3ZM9.04615 6.68125H12L9.78462 8.55268L11.0154 11.5938L8.06154 9.25446L4.98462 11.5938L6.33846 8.43571L4 6.68125H7.07692L8.06154 3.40625L9.04615 6.68125Z" fill="white"/>
</g>
<defs>
<clipPath id="clip0_0_90">
<rect width="16" height="16" fill="white"/>
</clipPath>
</defs>
</svg>
